<?xml version="1.0" encoding="UTF-8" standalone="no"?>
<!-- Created with Inkscape (http://www.inkscape.org/) -->

<svg
   xmlns:dc="http://purl.org/dc/elements/1.1/"
   xmlns:cc="http://creativecommons.org/ns#"
   xmlns:rdf="http://www.w3.org/1999/02/22-rdf-syntax-ns#"
   xmlns:svg="http://www.w3.org/2000/svg"
   xmlns="http://www.w3.org/2000/svg"
   xmlns:sodipodi="http://sodipodi.sourceforge.net/DTD/sodipodi-0.dtd"
   xmlns:inkscape="http://www.inkscape.org/namespaces/inkscape"
   id="svg3092"
   version="1.1"
   inkscape:version="0.48.4 r9939"
   width="758.59991"
   height="930.18683"
   sodipodi:docname="logo.svg">
  <metadata
     id="metadata3098">
    <rdf:RDF>
      <cc:Work
         rdf:about="">
        <dc:format>image/svg+xml</dc:format>
        <dc:type
           rdf:resource="http://purl.org/dc/dcmitype/StillImage" />
        <dc:title />
      </cc:Work>
    </rdf:RDF>
  </metadata>
  <defs
     id="defs3096" />
  <sodipodi:namedview
     pagecolor="#ffffff"
     bordercolor="#666666"
     borderopacity="1"
     objecttolerance="10"
     gridtolerance="10"
     guidetolerance="10"
     inkscape:pageopacity="0"
     inkscape:pageshadow="2"
     inkscape:window-width="1855"
     inkscape:window-height="1056"
     id="namedview3094"
     showgrid="false"
     inkscape:snap-bbox="false"
     inkscape:bbox-nodes="true"
     inkscape:object-paths="false"
     inkscape:snap-grids="true"
     inkscape:bbox-paths="true"
     inkscape:snap-nodes="false"
     inkscape:object-nodes="false"
     inkscape:snap-smooth-nodes="false"
     inkscape:snap-midpoints="false"
     inkscape:snap-object-midpoints="false"
     inkscape:zoom="0.70710678"
     inkscape:cx="188.63708"
     inkscape:cy="412.10063"
     inkscape:window-x="65"
     inkscape:window-y="24"
     inkscape:window-maximized="1"
     inkscape:current-layer="svg3092"
     fit-margin-top="0"
     fit-margin-left="0"
     fit-margin-right="0"
     fit-margin-bottom="0"
     inkscape:snap-intersection-paths="true"
     inkscape:snap-to-guides="true"
     inkscape:snap-global="false" />
  <path
     style="fill:none;stroke-width:14;stroke-miterlimit:4;stroke-dasharray:none"
     d=""
     id="path4033"
     inkscape:connector-curvature="0" />
  <path
     style="fill:none;stroke-width:14;stroke-miterlimit:4;stroke-dasharray:none"
     d=""
     id="path4039"
     inkscape:connector-curvature="0" />
  <path
     style="fill:#ea2e49;fill-opacity:1;stroke-width:14;stroke-miterlimit:4;stroke-dasharray:none"
     d="M 378.84375 1.9375 C 274.55215 1.907992 202.2706 5.9846977 105.1875 17.375 C 73.406701 21.103685 6.76932 30.288921 3.71875 31.375 C 2.31423 31.875049 1.96875 79.974471 1.96875 265.375 L 1.96875 498.71875 L 9.0625 525.28125 C 12.97211 539.88781 20.84361 565.82552 26.5625 582.9375 C 77.29607 734.74159 163.02965 836.99564 291.09375 898.4375 C 312.29395 908.60884 324.53195 913.64514 351.28125 923.1875 C 376.06675 932.02929 383.0239 932.27612 403.8125 925.0625 C 483.5457 897.39514 547.0994 858.60119 601.6875 804.28125 C 644.6834 761.49662 672.24135 722.34789 700.59375 663.78125 C 720.86935 621.89866 737.14775 576.96738 751.40625 523.53125 L 758.59375 496.6875 L 758.21875 264.09375 L 757.84375 31.5 L 741.59375 29.03125 C 707.38915 23.821451 648.97795 16.44853 615.03125 13.0625 C 530.17135 4.5981297 474.03515 1.96443 378.84375 1.9375 z M 372.46875 13.3125 L 372.46875 235.3125 L 372.46875 457.3125 L 264.0625 458.25 C 204.4309 458.76687 124.251 459.1875 85.875 459.1875 L 16.09375 459.1875 L 16.4375 250.96875 L 16.8125 42.71875 L 28.125 40.96875 C 120.49557 26.704593 230.57385 17.182644 336.78125 14.28125 L 372.46875 13.3125 z M 502.625 97.96875 L 531.46875 97.96875 L 537.03125 113.53125 C 539.14635 119.47809 543.6694 124.27058 549.5 126.6875 C 555.3367 129.10744 561.95005 128.93224 567.65625 126.21875 L 582.5625 119.125 L 602.96875 139.53125 L 595.875 154.4375 C 593.1623 160.14666 592.98325 166.7548 595.40625 172.59375 C 597.82015 178.41987 602.6202 182.95043 608.5625 185.0625 L 624.125 190.625 L 624.125 219.46875 L 608.5625 225 C 602.6111 227.11659 597.82615 231.63432 595.40625 237.46875 L 595.40625 237.5 C 592.98775 243.3314 593.1646 249.92413 595.875 255.625 L 602.96875 270.5625 L 582.5625 290.9375 L 567.53125 283.8125 C 561.87345 281.12393 555.3471 280.96864 549.5625 283.375 C 543.6866 285.81833 539.09965 290.62834 536.96875 296.625 L 531.46875 312.125 L 502.625 312.125 L 497.09375 296.53125 C 494.97945 290.58439 490.42215 285.82317 484.59375 283.40625 C 478.75555 280.98631 472.1436 281.13028 466.4375 283.84375 L 451.53125 290.9375 L 431.125 270.5625 L 438.21875 255.625 C 440.93145 249.91432 441.1089 243.30921 438.6875 237.46875 C 436.272 231.64413 431.5033 227.11357 425.5625 225 L 409.96875 219.46875 L 409.96875 190.625 L 425.5625 185.0625 C 431.5079 182.94816 436.2721 178.4214 438.6875 172.59375 C 441.1074 166.75554 440.93225 160.14365 438.21875 154.4375 L 431.125 139.53125 L 451.53125 119.125 L 466.46875 126.21875 C 472.17945 128.93297 478.75335 129.10895 484.59375 126.6875 L 484.625 126.6875 C 490.4504 124.27209 494.98015 119.47205 497.09375 113.53125 L 502.625 97.96875 z M 517.0625 165.78125 C 495.3743 165.78125 477.78125 183.34307 477.78125 205.03125 C 477.78125 226.71792 495.3743 244.3125 517.0625 244.3125 C 538.7492 244.3125 556.3125 226.71792 556.3125 205.03125 C 556.3125 183.34307 538.7492 165.78125 517.0625 165.78125 z M 656.25 239.65625 L 671.59375 239.65625 L 674.53125 247.96875 C 675.65415 251.13045 678.0899 253.65095 681.1875 254.9375 C 684.2911 256.22407 687.81035 256.12874 690.84375 254.6875 L 698.78125 250.90625 L 709.59375 261.75 L 705.84375 269.6875 C 704.40105 272.72319 704.30565 276.23865 705.59375 279.34375 C 706.87725 282.4398 709.4023 284.84593 712.5625 285.96875 L 720.875 288.9375 L 720.875 304.25 L 720.84375 304.28125 L 712.5625 307.21875 C 709.3993 308.34458 706.88185 310.74165 705.59375 313.84375 C 704.30875 316.94281 704.3713 320.46809 705.8125 323.5 L 709.59375 331.4375 L 698.75 342.28125 L 690.78125 338.46875 C 687.77345 337.03957 684.29285 336.93973 681.21875 338.21875 C 678.09475 339.51889 675.6334 342.09313 674.5 345.28125 L 671.59375 353.53125 L 656.25 353.53125 L 653.3125 345.21875 C 652.1866 342.05856 649.7865 339.53354 646.6875 338.25 C 643.5846 336.96343 640.06465 337.05724 637.03125 338.5 L 629.09375 342.28125 L 618.25 331.4375 L 622.03125 323.5 C 623.47405 320.46431 623.56935 316.94734 622.28125 313.84375 C 620.99925 310.74619 618.43995 308.34157 615.28125 307.21875 L 607 304.25 L 607 288.9375 L 615.28125 286 C 618.44145 284.87568 620.99775 282.44283 622.28125 279.34375 C 623.56785 276.24166 623.47255 272.72092 622.03125 269.6875 L 618.25 261.75 L 629.09375 250.90625 L 637.03125 254.6875 C 640.06695 256.13025 643.5847 256.22407 646.6875 254.9375 C 649.7836 253.65245 652.1881 251.12744 653.3125 247.96875 L 656.25 239.65625 z M 663.9375 275.71875 C 652.4083 275.71875 643.0625 285.06448 643.0625 296.59375 C 643.0625 308.12148 652.4083 317.46875 663.9375 317.46875 C 675.4668 317.46875 684.8125 308.12148 684.8125 296.59375 C 684.8125 285.06448 675.4668 275.71875 663.9375 275.71875 z M 567.34375 306.59375 L 575.75 306.59375 L 577.21875 312.46875 C 577.51835 313.66702 578.4328 314.62057 579.625 314.9375 C 579.63 314.9445 579.64625 314.9375 579.65625 314.9375 C 580.86135 315.26045 582.1322 314.89645 583 314 L 587.21875 309.65625 L 594.46875 313.875 L 592.8125 319.71875 C 592.479 320.8876 592.79525 322.14204 593.65625 323 C 594.55495 323.89738 595.87285 324.25563 597.09375 323.90625 L 602.875 322.25 L 607.0625 329.53125 L 602.71875 333.75 C 601.83365 334.60494 601.4933 335.87326 601.8125 337.0625 C 601.8225 337.0674 601.8125 337.08675 601.8125 337.09375 C 602.1347 338.30108 603.1014 339.22792 604.3125 339.53125 L 610.15625 341 L 610.15625 349.40625 L 604.28125 350.875 C 603.08455 351.17532 602.1302 352.08901 601.8125 353.28125 L 601.8125 353.3125 C 601.4911 354.51832 601.8543 355.78847 602.75 356.65625 L 607.0625 360.875 L 602.875 368.125 L 597 366.46875 C 595.8319 366.13598 594.57755 366.45152 593.71875 367.3125 C 592.82065 368.21044 592.49515 369.52984 592.84375 370.75 L 594.46875 376.53125 L 587.21875 380.71875 L 583 376.375 C 582.1435 375.48907 580.8767 375.1503 579.6875 375.46875 L 579.65625 375.46875 C 578.44815 375.7902 577.52205 376.72639 577.21875 377.9375 L 575.75 383.8125 L 567.34375 383.8125 L 565.875 377.9375 C 565.5755 376.74073 564.629 375.78566 563.4375 375.46875 C 562.2332 375.14729 560.9295 375.50981 560.0625 376.40625 L 555.875 380.71875 L 548.59375 376.53125 L 550.28125 370.65625 C 550.61485 369.48891 550.2978 368.23297 549.4375 367.375 C 548.5381 366.47762 547.18965 366.15213 545.96875 366.5 L 540.21875 368.125 L 536 360.875 L 540.375 356.65625 C 541.2604 355.79981 541.60115 354.53296 541.28125 353.34375 L 541.28125 353.3125 C 540.95895 352.10669 539.99315 351.17834 538.78125 350.875 L 532.9375 349.40625 L 532.9375 341 L 538.8125 339.53125 C 540.01 339.23246 540.96425 338.28598 541.28125 337.09375 C 541.60265 335.88943 541.23945 334.58651 540.34375 333.71875 L 536 329.53125 L 540.21875 322.25 L 546.0625 323.9375 C 547.2314 324.27178 548.5162 323.92347 549.375 323.0625 C 550.2723 322.16303 550.5994 320.84516 550.25 319.625 L 548.59375 313.875 L 555.875 309.65625 L 560.09375 314.03125 C 560.95015 314.91568 562.21705 315.25743 563.40625 314.9375 C 563.41125 314.9305 563.4275 314.9375 563.4375 314.9375 C 564.6448 314.61453 565.5724 313.64859 565.875 312.4375 L 567.34375 306.59375 z M 571.53125 330.03125 C 563.16375 330.03125 556.40625 336.82069 556.40625 345.1875 C 556.40625 353.55581 563.16375 360.34375 571.53125 360.34375 C 579.89955 360.34375 586.6875 353.55581 586.6875 345.1875 C 586.6875 336.82069 579.89955 330.03125 571.53125 330.03125 z M 388.03125 473.34375 L 566.21875 473.34375 L 744.40625 473.34375 L 744.375 481.46875 C 744.3022 495.01675 741.9971 508.36438 735.875 530.625 C 710.4886 622.93382 674.48885 697.64197 626.15625 758.3125 C 611.49775 776.71294 576.11925 812.4221 559.15625 825.9375 C 521.12165 856.24198 476.8465 881.7744 429.75 900.5625 C 419.6384 904.59631 406.13575 909.66301 399.71875 911.84375 L 388.03125 915.8125 L 388.03125 694.5625 L 388.03125 473.34375 z "
     id="path4143" />
  <path
     style="fill:#ff0000;fill-opacity:0;stroke-width:14;stroke-miterlimit:4;stroke-dasharray:none"
     d="M 351.49726,921.58203 C 282.31657,896.85667 229.99562,867.41963 181.36451,825.8612 165.9732,812.70833 137.17574,783.27585 124.61095,767.85615 70.10914,700.97075 31.28467,616.94891 3.06662,504.81645 L 0,492.63036 0.004,261.14479 0.008,29.659221 2.75293,29.103204 c 1.50972,-0.305809 13.54494,-2.129299 26.74494,-4.0522 84.68388,-12.336265 154.7798,-19.1885138 243,-23.7545398 33.36721,-1.72699205 178.96685,-1.72917705 212,-0.0032 91.17301,4.763825 148.7282,10.1783158 225.95894,21.2570368 23.07742,3.310447 42.98992,6.277753 44.25,6.594013 l 2.29106,0.575017 0.23187,213.641589 c 0.12753,117.50287 0.24003,220.84159 0.25,229.64159 0.01,8.8 -0.34902,18.64179 -0.79775,21.87064 -1.20622,8.67929 -13.74683,53.77643 -21.8379,78.53098 -42.94214,131.38102 -109.25281,223.68286 -207.34622,288.61775 -37.55113,24.85773 -82.0637,46.37806 -127.46252,61.62384 -20.75662,6.97047 -23.59819,6.84965 -48.53748,-2.06371 z m 47.85542,-12.07167 c 55.22254,-19.04154 108.39717,-46.89734 148.64458,-77.86823 29.49243,-22.69479 63.19297,-56.77134 85.6836,-86.6396 41.41544,-55.00099 73.66668,-122.24959 96.80525,-201.85327 9.88082,-33.99299 11.56044,-42.01136 12.23242,-58.39673 l 0.58441,-14.25 -172.90284,0.009 c -95.09656,0.005 -175.26534,0.29246 -178.15284,0.63929 l -5.25,0.6306 0,220.86071 c 0,121.47308 0.17498,220.8604 0.38884,220.8604 0.21387,0 5.59883,-1.79648 11.96658,-3.99217 l 0,0 z m -28.7578,-454.27211 c 0.40236,-0.40237 0.94485,-100.46445 1.20554,-222.3602 l 0.47397,-221.628614 -26.88856,0.66409 C 258.20958,14.066592 179.0007,19.582003 98.99726,29.069865 76.36243,31.754201 34.08227,37.551237 22.88738,39.505294 l -6.60988,1.153749 -0.64012,7.572624 C 15.28531,52.39661 14.99726,146.01359 14.99726,256.2694 l 0,200.46511 177.43302,-0.38234 c 97.58816,-0.2103 177.76223,-0.71156 178.1646,-1.11392 z M 742.74626,309.25253 c -0.15909,-12.2375 -0.28926,-2.225 -0.28926,22.25 0,24.475 0.13017,34.4875 0.28926,22.25 0.15909,-12.2375 0.15909,-32.2625 0,-44.5 z m -1.4e-4,-117.5 c -0.16044,-11.4125 -0.29172,-2.075 -0.29172,20.75 0,22.825 0.13128,32.1625 0.29172,20.75 0.16044,-11.4125 0.16044,-30.0875 0,-41.5 z M 386.74601,66.752535 c -0.16144,-10.8625 -0.29353,-1.975 -0.29353,19.749997 0,21.724998 0.13209,30.612498 0.29353,19.749998 0.16144,-10.862498 0.16144,-28.637495 0,-39.499995 z M 619.72643,24.898368 c -0.33229,-0.332291 -1.1948,-0.367818 -1.91667,-0.07895 -0.79773,0.319226 -0.56078,0.556183 0.60417,0.604167 1.05416,0.04342 1.64479,-0.192928 1.3125,-0.52522 l 0,3e-6 z M 413.29051,13.34803 c 14.41371,0.190023 25.98175,0.134649 25.70675,-0.123054 -0.275,-0.257702 -12.3125,-0.788779 -26.75,-1.180171 l -26.25,-0.711623 0.18498,5.834677 0.18498,5.834676 0.35828,-5 0.35827,-5 26.20674,0.345495 z m 173.95675,8.492224 c -0.6875,-0.277412 -1.8125,-0.277412 -2.5,0 -0.6875,0.277413 -0.125,0.504386 1.25,0.504386 1.375,0 1.9375,-0.226973 1.25,-0.504386 z m -33,-3 c -0.6875,-0.277412 -1.8125,-0.277412 -2.5,0 -0.6875,0.277413 -0.125,0.504386 1.25,0.504386 1.375,0 1.9375,-0.226973 1.25,-0.504386 z m -18.98625,-1.04165 c -1.22994,-0.237362 -3.47994,-0.243505 -5,-0.01365 -1.52006,0.229854 -0.51375,0.424059 2.23625,0.431567 2.75,0.0075 3.99369,-0.180555 2.76375,-0.417917 l 0,0 z m -21.26375,-1.347112 c -2.475,-0.440391 -5.85,-0.770209 -7.5,-0.732929 -2.52546,0.05706 -2.36728,0.18107 1,0.783972 2.2,0.393904 5.575,0.723722 7.5,0.732928 3.14032,0.01502 3.03755,-0.06555 -1,-0.783971 z m -47.73625,-2.652888 c -1.22994,-0.237362 -3.47994,-0.243505 -5,-0.01365 -1.52006,0.229854 -0.51375,0.424059 2.23625,0.431567 2.75,0.0075 3.99369,-0.180555 2.76375,-0.417917 z"
     id="path4179"
     inkscape:connector-curvature="0" />
  <path
     style="fill:#1c344c;fill-opacity:1;stroke-width:14;stroke-miterlimit:4;stroke-dasharray:none"
     d=""
     id="path4191"
     inkscape:connector-curvature="0" />
  <path
     d="m 562.90586,718.28143 h -49.387 c -3.4613,0 -6.2668,2.80611 -6.2668,6.26813 0,3.46133 2.8055,6.26676 6.2668,6.26676 h 49.387 c 3.462,0 6.2674,-2.80543 6.2674,-6.26676 0,-3.46202 -2.8054,-6.26813 -6.2674,-6.26813 z m -1.1265,20.86676 h -47.1326 c -3.4613,0 -6.2668,2.80679 -6.2668,6.26744 0,3.46202 2.8055,6.26745 6.2668,6.26745 h 47.1326 c 3.4613,0 6.2668,-2.80543 6.2668,-6.26745 0,-3.46065 -2.8055,-6.26744 -6.2668,-6.26744 z m -46.8091,20.5766 c 12.2019,11.28032 13.4585,13.54633 18.329,13.54633 h 9.3815 c 4.7609,0 5.935,-2.10051 18.7737,-13.54633 h -46.4842 z m 94.59,-150.16953 c 0,42.43572 -36.4938,66.2162 -36.4938,99.70437 h -16.6188 c 0.014,-41.27378 36.1949,-63.01234 36.1949,-99.70437 0,-68.68177 -108.8583,-68.78939 -108.8583,0 0,36.65865 35.5533,57.46139 36.3767,99.70437 h -16.8013 c 0,-33.48817 -36.4938,-57.26865 -36.4938,-99.70437 -7e-4,-91.20156 142.6944,-91.29419 142.6944,0 z m -62.3176,-86.17029 h -17.0702 v -30.72563 h 17.0702 v 30.72563 z m 58.6159,-14.39975 -15.0413,-8.07099 -15.0223,27.99511 15.042,8.07099 15.0216,-27.99511 z m 43.6521,42.27703 -9.9433,-13.8753 -27.3113,19.57404 9.9427,13.87461 27.3119,-19.57335 z m 3.0146,107.68069 -30.7277,-12.44909 -6.4084,15.8212 30.7283,12.44839 6.4078,-15.8205 z m 10.2219,-60.33562 h -34.8211 v 17.06964 h 34.8211 v -17.06964 z m -162.0417,-69.69798 -15.0223,-27.99511 -15.0413,8.07099 15.0216,27.99511 15.042,-8.07099 z m -36.4605,28.05165 -27.3126,-19.57404 -9.9434,13.8753 27.3119,19.57335 9.9441,-13.87461 z m -2.8375,103.86109 -7.0002,-15.56783 -30.7284,13.81468 6.9989,15.56783 30.7297,-13.81468 z m -12.8318,-62.21476 h -34.8224 v 17.06964 h 34.8224 v -17.06964 z"
     id="light-bulb-18-icon"
     inkscape:connector-curvature="0"
     style="fill:#ea2e49;fill-opacity:1" />
  <path
     d="m 212.13474,152.04644 h 28.7485 l -65.2503,171.59719 h -28.5876 l 65.0894,-171.59719 z m 130.0535,97.67108 -84.7577,47.63268 v -29.53683 l 49.3529,-27.83179 -49.3529,-27.54558 v -29.6129 l 84.7577,47.63412 v 19.2603 z M 43.646186,230.45722 128.40464,182.82381 v 29.61292 l -49.353704,27.54485 49.352904,27.83179 V 297.3502 L 43.646186,249.71752 v -19.2603 z"
     id="html-code-icon"
     inkscape:connector-curvature="0"
     style="fill:#ea2e49;fill-opacity:1" />
</svg>
