<?xml version="1.0" encoding="utf-8"?>
<!-- Generator: Adobe Illustrator 18.1.1, SVG Export Plug-In . SVG Version: 6.00 Build 0)  -->
<svg version="1.1"
	 id="svg3092" xmlns:rdf="http://www.w3.org/1999/02/22-rdf-syntax-ns#" xmlns:cc="http://creativecommons.org/ns#" xmlns:inkscape="http://www.inkscape.org/namespaces/inkscape" xmlns:dc="http://purl.org/dc/elements/1.1/" xmlns:svg="http://www.w3.org/2000/svg" xmlns:sodipodi="http://sodipodi.sourceforge.net/DTD/sodipodi-0.dtd" inkscape:version="0.48.4 r9939" sodipodi:docname="logo.svg"
	 xmlns="http://www.w3.org/2000/svg" xmlns:xlink="http://www.w3.org/1999/xlink" x="0px" y="0px" viewBox="-160 495.8 758.6 930.2"
	 enable-background="new -160 495.8 758.6 930.2" xml:space="preserve">
<sodipodi:namedview  id="namedview3094" inkscape:zoom="0.70710678" gridtolerance="10" fit-margin-top="0" inkscape:cx="188.63708" inkscape:cy="412.10063" objecttolerance="10" showgrid="false" fit-margin-left="0" guidetolerance="10" pagecolor="#ffffff" borderopacity="1" bordercolor="#666666" inkscape:snap-intersection-paths="true" inkscape:snap-bbox="false" inkscape:bbox-nodes="true" inkscape:snap-smooth-nodes="false" inkscape:object-paths="false" inkscape:pageshadow="2" inkscape:current-layer="svg3092" inkscape:snap-grids="true" inkscape:object-nodes="false" fit-margin-bottom="0" inkscape:snap-global="false" inkscape:snap-to-guides="true" inkscape:window-maximized="1" inkscape:window-y="24" inkscape:bbox-paths="true" inkscape:window-height="1056" inkscape:snap-nodes="false" inkscape:snap-midpoints="false" inkscape:window-x="65" fit-margin-right="0" inkscape:pageopacity="0" inkscape:snap-object-midpoints="false" inkscape:window-width="1855">
	</sodipodi:namedview>
<path id="path4033" inkscape:connector-curvature="0" fill="none" d="M-160,495.8"/>
<path id="path4039" inkscape:connector-curvature="0" fill="none" d="M-160,495.8"/>
<path id="path4143" fill="#FFFFFF" d="M218.8,497.8c-104.3,0-176.6,4-273.7,15.4c-31.8,3.7-98.4,12.9-101.5,14
	c-1.4,0.5-1.8,48.6-1.8,234v233.3l7.1,26.6c3.9,14.6,11.8,40.5,17.5,57.7c50.7,151.8,136.5,254.1,264.5,315.5
	c21.2,10.2,33.4,15.2,60.2,24.8c24.8,8.8,31.7,9.1,52.5,1.9c79.7-27.7,143.3-66.5,197.9-120.8c43-42.8,70.6-81.9,98.9-140.5
	c20.3-41.9,36.6-86.8,50.8-140.3l7.2-26.8l-0.4-232.6l-0.4-232.6l-16.3-2.5c-34.2-5.2-92.6-12.6-126.6-16
	C370.2,500.4,314,497.8,218.8,497.8z M212.5,509.1v222v222l-108.4,0.9C44.4,954.6-35.7,955-74.1,955h-69.8l0.3-208.2l0.4-208.3
	l11.3-1.8c92.4-14.3,202.4-23.8,308.7-26.7L212.5,509.1z M342.6,593.8h28.8l5.6,15.6c2.1,5.9,6.6,10.7,12.5,13.2
	c5.8,2.4,12.5,2.2,18.2-0.5l14.9-7.1l20.4,20.4l-7.1,14.9c-2.7,5.7-2.9,12.3-0.5,18.2c2.4,5.8,7.2,10.4,13.2,12.5l15.6,5.6v28.8
	l-15.6,5.5c-6,2.1-10.7,6.6-13.2,12.5v0c-2.4,5.8-2.2,12.4,0.5,18.1l7.1,14.9l-20.4,20.4l-15-7.1c-5.7-2.7-12.2-2.8-18-0.4
	c-5.9,2.4-10.5,7.3-12.6,13.3l-5.5,15.5h-28.8l-5.5-15.6c-2.1-5.9-6.7-10.7-12.5-13.1c-5.8-2.4-12.5-2.3-18.2,0.4l-14.9,7.1
	l-20.4-20.4l7.1-14.9c2.7-5.7,2.9-12.3,0.5-18.2c-2.4-5.8-7.2-10.4-13.1-12.5l-15.6-5.5v-28.8l15.6-5.6c5.9-2.1,10.7-6.6,13.1-12.5
	c2.4-5.8,2.2-12.5-0.5-18.2l-7.1-14.9l20.4-20.4l14.9,7.1c5.7,2.7,12.3,2.9,18.1,0.5h0c5.8-2.4,10.4-7.2,12.5-13.2L342.6,593.8z
	 M357.1,661.6c-21.7,0-39.3,17.6-39.3,39.3c0,21.7,17.6,39.3,39.3,39.3c21.7,0,39.3-17.6,39.3-39.3
	C396.3,679.2,378.7,661.6,357.1,661.6z M496.3,735.5h15.3l2.9,8.3c1.1,3.2,3.6,5.7,6.7,7c3.1,1.3,6.6,1.2,9.7-0.3l7.9-3.8l10.8,10.8
	l-3.8,7.9c-1.4,3-1.5,6.6-0.3,9.7c1.3,3.1,3.8,5.5,7,6.6l8.3,3v15.3l0,0l-8.3,2.9c-3.2,1.1-5.7,3.5-7,6.6c-1.3,3.1-1.2,6.6,0.2,9.7
	l3.8,7.9l-10.8,10.8l-8-3.8c-3-1.4-6.5-1.5-9.6-0.3c-3.1,1.3-5.6,3.9-6.7,7.1l-2.9,8.3h-15.3l-2.9-8.3c-1.1-3.2-3.5-5.7-6.6-7
	c-3.1-1.3-6.6-1.2-9.7,0.3l-7.9,3.8l-10.8-10.8l3.8-7.9c1.4-3,1.5-6.6,0.3-9.7c-1.3-3.1-3.8-5.5-7-6.6l-8.3-3v-15.3l8.3-2.9
	c3.2-1.1,5.7-3.6,7-6.7c1.3-3.1,1.2-6.6-0.3-9.7l-3.8-7.9l10.8-10.8l7.9,3.8c3,1.4,6.6,1.5,9.7,0.3c3.1-1.3,5.5-3.8,6.6-7
	L496.3,735.5z M503.9,771.5c-11.5,0-20.9,9.3-20.9,20.9c0,11.5,9.3,20.9,20.9,20.9c11.5,0,20.9-9.3,20.9-20.9
	C524.8,780.9,515.5,771.5,503.9,771.5z M407.3,802.4h8.4l1.5,5.9c0.3,1.2,1.2,2.2,2.4,2.5c0,0,0,0,0,0c1.2,0.3,2.5,0,3.3-0.9
	l4.2-4.3l7.3,4.2l-1.7,5.8c-0.3,1.2,0,2.4,0.8,3.3c0.9,0.9,2.2,1.3,3.4,0.9l5.8-1.7l4.2,7.3l-4.3,4.2c-0.9,0.9-1.2,2.1-0.9,3.3
	c0,0,0,0,0,0c0.3,1.2,1.3,2.1,2.5,2.4l5.8,1.5v8.4l-5.9,1.5c-1.2,0.3-2.2,1.2-2.5,2.4v0c-0.3,1.2,0,2.5,0.9,3.3l4.3,4.2l-4.2,7.3
	l-5.9-1.7c-1.2-0.3-2.4,0-3.3,0.8c-0.9,0.9-1.2,2.2-0.9,3.4l1.6,5.8l-7.3,4.2l-4.2-4.3c-0.9-0.9-2.1-1.2-3.3-0.9h0
	c-1.2,0.3-2.1,1.3-2.4,2.5l-1.5,5.9h-8.4l-1.5-5.9c-0.3-1.2-1.2-2.2-2.4-2.5c-1.2-0.3-2.5,0-3.4,0.9l-4.2,4.3l-7.3-4.2l1.7-5.9
	c0.3-1.2,0-2.4-0.8-3.3c-0.9-0.9-2.2-1.2-3.5-0.9l-5.8,1.6l-4.2-7.3l4.4-4.2c0.9-0.9,1.2-2.1,0.9-3.3v0c-0.3-1.2-1.3-2.1-2.5-2.4
	l-5.8-1.5v-8.4l5.9-1.5c1.2-0.3,2.2-1.2,2.5-2.4c0.3-1.2,0-2.5-0.9-3.4l-4.3-4.2l4.2-7.3l5.8,1.7c1.2,0.3,2.5,0,3.3-0.9
	c0.9-0.9,1.2-2.2,0.9-3.4l-1.7-5.8l7.3-4.2l4.2,4.4c0.9,0.9,2.1,1.2,3.3,0.9c0,0,0,0,0,0c1.2-0.3,2.1-1.3,2.4-2.5L407.3,802.4z
	 M411.5,825.8c-8.4,0-15.1,6.8-15.1,15.2c0,8.4,6.8,15.2,15.1,15.2c8.4,0,15.2-6.8,15.2-15.2C426.7,832.6,419.9,825.8,411.5,825.8z
	 M228,969.2h178.2h178.2l0,8.1c-0.1,13.5-2.4,26.9-8.5,49.2c-25.4,92.3-61.4,167-109.7,227.7c-14.7,18.4-50,54.1-67,67.6
	c-38,30.3-82.3,55.8-129.4,74.6c-10.1,4-23.6,9.1-30,11.3l-11.7,4v-221.3V969.2z"/>
<path id="path4191" inkscape:connector-curvature="0" fill="#FF0000" fill-opacity="0" d="M191.5,1417.4
	c-69.2-24.7-121.5-54.2-170.1-95.7c-15.4-13.2-44.2-42.6-56.8-58c-54.5-66.9-93.3-150.9-121.5-263l-3.1-12.2l0-231.5l0-231.5
	l2.7-0.6c1.5-0.3,13.5-2.1,26.7-4.1c84.7-12.3,154.8-19.2,243-23.8c33.4-1.7,179-1.7,212,0c91.2,4.8,148.7,10.2,226,21.3
	c23.1,3.3,43,6.3,44.3,6.6l2.3,0.6l0.2,213.6c0.1,117.5,0.2,220.8,0.3,229.6c0,8.8-0.3,18.6-0.8,21.9c-1.2,8.7-13.7,53.8-21.8,78.5
	c-42.9,131.4-109.3,223.7-207.3,288.6c-37.6,24.9-82.1,46.4-127.5,61.6C219.3,1426.4,216.4,1426.3,191.5,1417.4L191.5,1417.4z
	 M239.4,1405.3c55.2-19,108.4-46.9,148.6-77.9c29.5-22.7,63.2-56.8,85.7-86.6c41.4-55,73.7-122.2,96.8-201.9
	c9.9-34,11.6-42,12.2-58.4l0.6-14.3l-172.9,0c-95.1,0-175.3,0.3-178.2,0.6l-5.3,0.6v220.9c0,121.5,0.2,220.9,0.4,220.9
	S233,1407.5,239.4,1405.3L239.4,1405.3L239.4,1405.3z M210.6,951.1c0.4-0.4,0.9-100.5,1.2-222.4l0.5-221.6l-26.9,0.7
	C98.2,509.9,19,515.4-61,524.9c-22.6,2.7-64.9,8.5-76.1,10.4l-6.6,1.2l-0.6,7.6c-0.4,4.2-0.6,97.8-0.6,208v200.5l177.4-0.4
	C130,952,210.2,951.5,210.6,951.1L210.6,951.1z M582.7,805.1c-0.2-12.2-0.3-2.2-0.3,22.3c0,24.5,0.1,34.5,0.3,22.3
	C582.9,837.3,582.9,817.3,582.7,805.1z M582.7,687.6c-0.2-11.4-0.3-2.1-0.3,20.8c0,22.8,0.1,32.2,0.3,20.8
	C582.9,717.7,582.9,699,582.7,687.6z M226.7,562.6c-0.2-10.9-0.3-2-0.3,19.8c0,21.7,0.1,30.6,0.3,19.8
	C226.9,591.2,226.9,573.4,226.7,562.6z M459.7,520.7c-0.3-0.3-1.2-0.4-1.9-0.1c-0.8,0.3-0.6,0.6,0.6,0.6
	C459.5,521.3,460.1,521,459.7,520.7C459.7,520.7,459.7,520.7,459.7,520.7z M253.3,509.2c14.4,0.2,26,0.1,25.7-0.1
	s-12.3-0.8-26.8-1.2l-26.3-0.7l0.2,5.8l0.2,5.8l0.4-5l0.4-5L253.3,509.2L253.3,509.2z M427.2,517.7c-0.7-0.3-1.8-0.3-2.5,0
	s-0.1,0.5,1.3,0.5S427.9,517.9,427.2,517.7z M394.2,514.7c-0.7-0.3-1.8-0.3-2.5,0s-0.1,0.5,1.3,0.5S394.9,514.9,394.2,514.7z
	 M375.3,513.6c-1.2-0.2-3.5-0.2-5,0s-0.5,0.4,2.2,0.4S376.5,513.8,375.3,513.6C375.3,513.6,375.3,513.6,375.3,513.6z M354,512.3
	c-2.5-0.4-5.9-0.8-7.5-0.7c-2.5,0.1-2.4,0.2,1,0.8c2.2,0.4,5.6,0.7,7.5,0.7C358.1,513.1,358,513,354,512.3z M306.3,509.6
	c-1.2-0.2-3.5-0.2-5,0s-0.5,0.4,2.2,0.4S307.5,509.8,306.3,509.6z M-160,495.8"/>
<path id="light-bulb-18-icon" inkscape:connector-curvature="0" fill="#FFFFFF" d="M402.9,1214.1h-49.4c-3.5,0-6.3,2.8-6.3,6.3
	c0,3.5,2.8,6.3,6.3,6.3h49.4c3.5,0,6.3-2.8,6.3-6.3C409.2,1216.9,406.4,1214.1,402.9,1214.1z M401.8,1235h-47.1
	c-3.5,0-6.3,2.8-6.3,6.3c0,3.5,2.8,6.3,6.3,6.3h47.1c3.5,0,6.3-2.8,6.3-6.3C408,1237.8,405.2,1235,401.8,1235L401.8,1235z
	 M355,1255.5c12.2,11.3,13.5,13.5,18.3,13.5h9.4c4.8,0,5.9-2.1,18.8-13.5H355z M449.6,1105.4c0,42.4-36.5,66.2-36.5,99.7h-16.6
	c0-41.3,36.2-63,36.2-99.7c0-68.7-108.9-68.8-108.9,0c0,36.7,35.6,57.5,36.4,99.7h-16.8c0-33.5-36.5-57.3-36.5-99.7
	C306.9,1014.2,449.6,1014.1,449.6,1105.4z M387.2,1019.2h-17.1v-30.7h17.1V1019.2z M445.9,1004.8l-15-8.1l-15,28l15,8.1
	L445.9,1004.8L445.9,1004.8z M489.5,1047.1l-9.9-13.9l-27.3,19.6l9.9,13.9L489.5,1047.1z M492.5,1154.8l-30.7-12.4l-6.4,15.8
	l30.7,12.4L492.5,1154.8L492.5,1154.8z M502.7,1094.4h-34.8v17.1h34.8V1094.4z M340.7,1024.7l-15-28l-15,8.1l15,28L340.7,1024.7z
	 M304.2,1052.8l-27.3-19.6l-9.9,13.9l27.3,19.6L304.2,1052.8z M301.4,1156.6l-7-15.6l-30.7,13.8l7,15.6L301.4,1156.6z M288.6,1094.4
	h-34.8v17.1h34.8V1094.4z"/>
<path id="html-code-icon" inkscape:connector-curvature="0" fill="#FFFFFF" d="M52.1,647.9h28.7L15.6,819.5H-13L52.1,647.9z
	 M182.2,745.5l-84.8,47.6v-29.5l49.4-27.8l-49.4-27.5v-29.6l84.8,47.6V745.5z M-116.4,726.3l84.8-47.6v29.6l-49.4,27.5l49.4,27.8
	v29.5l-84.8-47.6V726.3z"/>
</svg>
